<?xml version="1.0" standalone="no"?>
<!DOCTYPE svg PUBLIC "-//W3C//DTD SVG 20010904//EN"
 "http://www.w3.org/TR/2001/REC-SVG-20010904/DTD/svg10.dtd">
<svg version="1.0" xmlns="http://www.w3.org/2000/svg"
 width="404.000000pt" height="404.000000pt" viewBox="0 0 404.000000 404.000000"
 preserveAspectRatio="xMidYMid meet">
<metadata>
Created by potrace 1.14, written by Peter Selinger 2001-2017
</metadata>
<g transform="translate(0.000000,404.000000) scale(0.100000,-0.100000)"
fill="#000000" stroke="none">
<path d="M0 2020 l0 -2020 2020 0 2020 0 0 2020 0 2020 -2020 0 -2020 0 0
-2020z m1080 1771 l29 -29 0 -138 c0 -152 14 -268 38 -326 25 -60 36 -50 49
47 8 62 23 87 76 125 55 40 83 38 125 -6 31 -33 34 -41 28 -78 -9 -56 -36
-159 -46 -172 -5 -5 -4 -26 1 -45 5 -19 13 -53 19 -75 6 -23 11 -53 11 -67 0
-22 -4 -26 -29 -25 -20 1 -28 5 -24 15 3 7 -2 31 -11 53 -9 22 -16 58 -16 80
0 39 -7 48 -25 32 -6 -5 -32 -17 -58 -27 -60 -21 -87 -12 -111 39 -18 39 -18
39 -39 30 -27 -10 0 -71 60 -132 78 -79 107 -112 127 -145 17 -28 14 -47 -7
-47 -12 0 -58 40 -84 73 -6 8 -46 55 -87 104 l-75 90 -73 7 c-40 3 -77 12 -83
19 -5 7 -20 11 -31 9 -14 -2 -31 8 -48 29 -23 27 -26 40 -24 82 2 40 8 54 28
69 24 17 28 18 73 2 27 -9 50 -14 53 -11 3 3 -3 22 -14 44 -24 47 -38 122 -36
188 1 28 2 67 3 89 1 32 9 46 45 82 37 38 49 44 85 44 34 0 49 -6 71 -29z
m2038 1 c45 -40 62 -89 62 -174 -1 -81 -12 -144 -37 -201 -9 -20 -13 -40 -10
-43 3 -3 26 2 50 11 52 20 82 10 97 -31 24 -62 -23 -159 -73 -152 -12 2 -26
-2 -32 -9 -5 -7 -41 -15 -80 -19 -79 -7 -65 4 -202 -161 -45 -54 -91 -104
-104 -111 -28 -18 -45 -2 -30 27 10 17 9 21 -3 21 -18 0 -29 16 -21 31 5 7 14
4 26 -7 19 -17 20 -17 25 3 3 11 17 26 30 33 13 8 24 17 24 21 0 5 24 33 54
63 65 67 85 108 63 130 -17 17 -22 13 -47 -38 -22 -42 -52 -53 -97 -33 -21 8
-46 18 -55 21 -10 3 -18 13 -18 22 0 38 -12 2 -17 -48 -2 -29 -11 -66 -18 -82
-8 -16 -12 -38 -9 -50 4 -18 1 -21 -26 -20 -16 0 -33 3 -36 7 -3 3 3 34 14 69
18 57 23 86 24 128 0 8 -9 48 -21 88 -12 40 -18 78 -15 84 4 6 1 14 -7 18 -10
7 -9 16 7 45 10 20 28 43 39 51 26 18 69 18 85 -1 7 -8 16 -15 21 -15 5 0 23
-15 39 -32 22 -25 32 -50 42 -105 6 -40 16 -73 20 -73 30 0 66 209 62 359 -2
70 1 127 8 144 24 60 113 76 166 29z m-1023 -490 c108 -28 205 -71 285 -127
47 -33 108 -76 135 -95 28 -19 70 -56 95 -82 24 -26 50 -48 57 -48 7 0 13 -6
13 -14 0 -8 27 -47 60 -86 33 -39 60 -75 60 -80 0 -4 18 -38 40 -74 22 -36 40
-69 40 -73 0 -3 6 -14 14 -22 8 -9 19 -32 25 -51 5 -19 20 -62 32 -95 26 -74
33 -136 32 -290 -1 -89 -5 -128 -17 -150 -9 -16 -16 -38 -16 -47 0 -20 -15
-53 -81 -173 -31 -58 -94 -116 -282 -263 -23 -17 -53 -37 -67 -43 -14 -7 -48
-22 -76 -35 -28 -13 -60 -24 -71 -24 -10 0 -29 -9 -41 -21 -29 -26 -18 -45 14
-25 50 34 66 20 108 -102 8 -23 22 -57 30 -75 47 -105 58 -138 61 -190 7 -101
-39 -232 -101 -287 -18 -15 -37 -29 -44 -32 -7 -2 -13 -41 -16 -108 -4 -93
-12 -150 -31 -242 -4 -22 1 -34 27 -58 18 -17 31 -32 29 -34 -2 -2 -31 -1 -64
2 l-60 7 -6 85 c-3 47 -10 94 -16 105 -6 11 -14 42 -18 70 -13 89 -6 87 -228
89 l-194 1 -11 -25 c-6 -14 -14 -45 -18 -70 -4 -25 -12 -54 -17 -65 -6 -11
-14 -58 -17 -105 l-5 -85 -60 -7 c-33 -3 -62 -4 -65 -2 -2 3 9 15 24 28 32 25
35 47 17 141 -6 33 -14 107 -17 165 l-5 105 -38 32 c-26 22 -47 53 -63 95 -40
99 -45 120 -40 168 2 25 4 56 6 70 1 14 8 39 15 55 7 17 24 53 36 80 12 28 26
61 30 75 8 27 32 86 45 110 5 9 18 14 35 12 44 -5 28 30 -20 44 -63 18 -151
60 -192 91 -234 173 -314 271 -386 473 -22 61 -36 199 -26 252 12 65 11 70
-13 66 -21 -3 -23 -9 -26 -68 -2 -36 -7 -69 -12 -74 -16 -16 -164 143 -183
195 -40 113 -45 138 -30 150 18 15 131 7 206 -16 56 -16 59 -18 53 -43 -4 -15
-9 -48 -13 -74 -5 -40 -3 -48 11 -48 9 0 16 8 16 17 0 47 80 250 128 324 9 15
30 48 46 75 76 126 212 273 321 346 39 26 97 67 130 90 33 24 80 50 105 58 25
7 59 20 75 28 72 36 150 44 230 24z m755 -212 c0 -5 -4 -10 -10 -10 -5 0 -10
5 -10 10 0 6 5 10 10 10 6 0 10 -4 10 -10z m-1530 -60 c0 -5 -4 -10 -10 -10
-5 0 -10 5 -10 10 0 6 5 10 10 10 6 0 10 -4 10 -10z m1435 0 c3 -5 -1 -10 -9
-10 -9 0 -16 5 -16 10 0 6 4 10 9 10 6 0 13 -4 16 -10z m-1432 -66 c-4 -12
-33 -21 -33 -10 0 17 14 34 25 30 8 -3 11 -12 8 -20z m1873 -447 c11 -28 -45
-167 -91 -227 -53 -69 -75 -77 -75 -26 0 18 -7 39 -15 46 -9 8 -12 22 -8 42 3
17 -2 51 -13 84 -13 39 -15 57 -7 65 27 27 199 40 209 16z m-2178 -439 c6 -35
13 -73 17 -85 15 -46 -51 -17 -125 55 l-24 24 24 19 c26 19 80 48 91 49 4 0
11 -28 17 -62z m2089 28 c18 -12 33 -28 32 -36 0 -22 -99 -100 -127 -100 -19
0 -23 4 -17 18 4 9 11 35 16 57 19 93 20 96 42 89 12 -4 36 -16 54 -28z
m-1507 -691 c0 -2 -13 -34 -30 -70 -16 -36 -30 -70 -30 -76 0 -17 -40 -88 -77
-137 -19 -25 -39 -55 -44 -67 -5 -11 -14 -27 -21 -36 -9 -13 -8 -24 6 -53 32
-69 6 -156 -55 -180 -56 -23 -112 2 -144 64 -20 38 0 129 31 140 12 5 25 13
28 18 3 6 15 8 27 5 23 -6 56 31 51 58 -3 17 34 95 49 105 5 3 9 17 9 32 1 17
13 39 33 59 18 18 44 50 57 72 26 41 63 69 93 70 9 1 17 -1 17 -4z m910 -13
c26 -16 74 -71 105 -121 6 -9 16 -20 23 -24 6 -4 12 -17 12 -29 0 -11 14 -43
30 -70 17 -26 30 -56 30 -66 0 -10 6 -30 13 -46 10 -22 17 -26 40 -23 18 2 31
-1 34 -10 3 -7 13 -13 22 -13 17 0 41 -60 41 -104 0 -32 -45 -85 -87 -102 -28
-12 -38 -12 -65 -1 -44 19 -56 35 -67 93 -7 37 -6 57 6 87 15 37 15 42 -3 76
-10 20 -40 64 -66 99 -26 34 -54 85 -62 112 -8 28 -23 65 -32 83 -30 57 -33
65 -27 71 10 10 21 7 53 -12z m335 -382 c3 -5 1 -10 -4 -10 -6 0 -11 5 -11 10
0 6 2 10 4 10 3 0 8 -4 11 -10z"/>
<path d="M960 3550 c-12 -7 -12 -12 -3 -21 10 -10 14 -9 19 5 8 22 2 27 -16
16z"/>
<path d="M1010 3425 c0 -9 -7 -18 -15 -21 -8 -4 -15 -13 -15 -21 0 -20 18 -7
35 28 9 16 11 29 5 29 -5 0 -10 -7 -10 -15z"/>
<path d="M1322 3402 c-28 -2 -42 -7 -39 -15 2 -7 11 -11 19 -9 11 2 14 -4 10
-23 -3 -20 0 -25 17 -25 20 0 30 23 14 33 -5 2 -3 2 4 1 16 -4 39 25 27 34 -5
4 -28 6 -52 4z"/>
<path d="M1075 3290 c3 -5 8 -10 11 -10 2 0 4 5 4 10 0 6 -5 10 -11 10 -5 0
-7 -4 -4 -10z"/>
<path d="M1263 3283 c-7 -2 -13 -9 -13 -14 0 -4 7 -6 16 -2 10 4 17 -2 21 -16
7 -29 47 -25 51 5 4 27 -39 42 -75 27z"/>
<path d="M976 3272 c-9 -14 14 -29 58 -37 37 -7 38 -7 31 16 -10 32 -9 31 -39
17 -22 -9 -29 -9 -35 1 -5 8 -11 9 -15 3z"/>
<path d="M1085 3260 c3 -5 8 -10 11 -10 2 0 4 5 4 10 0 6 -5 10 -11 10 -5 0
-7 -4 -4 -10z"/>
<path d="M1242 3205 c-17 -36 -16 -37 18 -20 33 17 40 45 12 45 -11 0 -24 -11
-30 -25z"/>
<path d="M3075 3550 c-4 -6 -3 -16 3 -22 6 -6 12 -6 17 2 4 6 3 16 -3 22 -6 6
-12 6 -17 -2z"/>
<path d="M3042 3398 c5 -15 28 -23 28 -10 0 5 -7 13 -16 16 -10 4 -14 1 -12
-6z"/>
<path d="M2682 3383 c2 -11 11 -17 23 -15 16 2 17 1 5 -7 -11 -8 -12 -13 -3
-22 18 -18 46 -3 38 21 -5 14 -2 20 9 20 9 0 16 5 16 10 0 6 -21 10 -46 10
-38 0 -45 -3 -42 -17z"/>
<path d="M2728 3283 c-10 -2 -18 -8 -18 -13 0 -22 14 -40 31 -40 10 0 19 -6
19 -14 0 -8 14 -21 30 -30 17 -8 30 -10 30 -5 0 20 -21 49 -35 49 -17 0 -20
26 -5 35 30 19 -4 31 -52 18z"/>
<path d="M2987 3260 c-7 -25 5 -32 40 -24 32 8 53 22 53 36 0 6 -7 5 -15 -2
-12 -10 -21 -10 -41 -1 -32 14 -31 14 -37 -9z"/>
<path d="M2950 3259 c0 -5 5 -7 10 -4 6 3 10 8 10 11 0 2 -4 4 -10 4 -5 0 -10
-5 -10 -11z"/>
<path d="M1302 2297 c-39 -15 -87 -59 -108 -99 -8 -16 -20 -67 -26 -114 -10
-73 -9 -91 6 -139 34 -110 102 -161 236 -177 87 -10 94 -9 136 13 25 12 58 39
73 58 29 38 56 115 46 131 -12 20 -33 9 -44 -22 -25 -67 -37 -84 -80 -105 -75
-38 -124 -40 -192 -8 -74 36 -101 66 -123 138 -14 48 -15 64 -5 95 39 122 63
152 139 173 25 6 49 16 55 20 14 14 63 11 94 -5 57 -30 103 -97 131 -193 18
-60 40 -65 40 -8 0 81 -65 197 -130 230 -36 18 -207 26 -248 12z"/>
<path d="M2584 2301 c-103 -9 -165 -56 -196 -148 -19 -56 -29 -143 -17 -143
11 0 39 54 39 75 0 51 84 156 139 175 36 12 48 11 113 -10 83 -26 111 -47 137
-106 30 -66 35 -117 17 -176 -19 -66 -47 -96 -122 -133 -56 -27 -60 -28 -118
-16 -98 20 -130 46 -154 126 -5 17 -17 32 -26 33 -16 4 -17 -2 -11 -49 9 -66
50 -120 113 -149 39 -19 56 -21 111 -15 111 11 140 22 195 78 60 61 78 110 75
200 -3 80 -17 133 -45 178 -44 71 -111 93 -250 80z"/>
<path d="M1351 2123 c-24 -22 -31 -39 -36 -84 -7 -55 -7 -55 34 -92 34 -31 48
-37 85 -37 54 0 110 35 114 70 4 34 -30 132 -48 140 -8 4 -25 12 -37 18 -39
20 -80 14 -112 -15z"/>
<path d="M2580 2140 c-8 -5 -23 -11 -32 -14 -15 -5 -58 -116 -58 -152 0 -7 17
-25 37 -39 67 -45 162 -25 196 42 23 43 7 121 -29 150 -30 24 -85 30 -114 13z"/>
<path d="M1430 1681 c0 -15 105 -61 139 -61 16 0 42 -5 58 -11 74 -28 452 -40
658 -21 162 16 302 51 331 84 16 17 16 18 -1 18 -10 0 -44 -9 -74 -19 -31 -11
-80 -22 -109 -25 -29 -4 -65 -12 -80 -18 -47 -20 -608 -24 -638 -5 -18 11
-132 35 -138 29 -3 -3 -16 -1 -29 5 -30 14 -91 33 -105 33 -7 0 -12 -4 -12 -9z"/>
</g>
</svg>
